<?xml version="1.0" encoding="UTF-8"?>
<svg width="25px" height="18px" viewBox="0 0 25 18" version="1.1" xmlns="http://www.w3.org/2000/svg" xmlns:xlink="http://www.w3.org/1999/xlink">
    <!-- Generator: Sketch 49.3 (51167) - http://www.bohemiancoding.com/sketch -->
    <title>ivo logo</title>
    <desc>Created with Sketch.</desc>
    <defs>
        <path d="M8.05720182,11.938448 L13.8389644,6.66745158 C15.0117222,5.35456199 16.7060957,4.52989917 18.5903742,4.52989917 C22.1303128,4.52989917 25,7.44046683 25,11.030834 C25,14.6212011 22.1303128,17.5317688 18.5903742,17.5317688 C15.9619557,17.5317688 13.7030548,15.9271374 12.7140141,13.6310428 L8.81175598,17.1885719 C8.57181768,17.4866083 8.2517935,17.7249708 7.86901221,17.8660333 C6.73807379,18.2828065 5.48757668,17.6924013 5.07594876,16.5473261 L2.4953397,9.3685339 C2.08371178,8.22345874 2.66682816,6.95733042 3.79776658,6.54055715 C4.92870501,6.12378387 6.17920211,6.7141892 6.59083004,7.85926437 L8.05720182,11.938448 Z M18.6632109,8.96235472 C17.4966401,8.96235472 16.5509478,9.91986827 16.5509478,11.1010211 L16.5509478,11.1083954 C16.5509478,12.2895483 17.4966401,13.2470617 18.6632109,13.2470617 C19.8297816,13.2470617 20.7754739,12.2895483 20.7754739,11.1083954 L20.7754739,11.1010211 C20.7754739,9.91986827 19.8297816,8.96235472 18.6632109,8.96235472 Z M2.17916489,0 C3.38268443,-2.23846489e-16 4.35832979,0.987840922 4.35832979,2.20640445 L4.35832979,2.21401237 C4.35832979,3.4325759 3.38268443,4.42041682 2.17916489,4.42041682 C0.975645356,4.42041682 5.42134599e-16,3.4325759 3.94745964e-16,2.21401237 L0,2.20640445 C-1.47388634e-16,0.987840922 0.975645356,2.23846489e-16 2.17916489,0 Z" id="path-1"></path>
    </defs>
    <g id="Page-2" stroke="none" stroke-width="1" fill="none" fill-rule="evenodd">
        <g id="iPhone-8" transform="translate(-171.000000, -634.000000)">
            <g id="ivo-logo" transform="translate(171.000000, 634.000000)">
                <g id="Mask-Copy" fill="#000000" fill-rule="nonzero">
                    <path d="M8.05720182,11.938448 L13.8389644,6.66745158 C15.0117222,5.35456199 16.7060957,4.52989917 18.5903742,4.52989917 C22.1303128,4.52989917 25,7.44046683 25,11.030834 C25,14.6212011 22.1303128,17.5317688 18.5903742,17.5317688 C15.9619557,17.5317688 13.7030548,15.9271374 12.7140141,13.6310428 L8.81175598,17.1885719 C8.57181768,17.4866083 8.2517935,17.7249708 7.86901221,17.8660333 C6.73807379,18.2828065 5.48757668,17.6924013 5.07594876,16.5473261 L2.4953397,9.3685339 C2.08371178,8.22345874 2.66682816,6.95733042 3.79776658,6.54055715 C4.92870501,6.12378387 6.17920211,6.7141892 6.59083004,7.85926437 L8.05720182,11.938448 Z M18.6632109,8.96235472 C17.4966401,8.96235472 16.5509478,9.91986827 16.5509478,11.1010211 L16.5509478,11.1083954 C16.5509478,12.2895483 17.4966401,13.2470617 18.6632109,13.2470617 C19.8297816,13.2470617 20.7754739,12.2895483 20.7754739,11.1083954 L20.7754739,11.1010211 C20.7754739,9.91986827 19.8297816,8.96235472 18.6632109,8.96235472 Z M2.17916489,0 C3.38268443,-2.23846489e-16 4.35832979,0.987840922 4.35832979,2.20640445 L4.35832979,2.21401237 C4.35832979,3.4325759 3.38268443,4.42041682 2.17916489,4.42041682 C0.975645356,4.42041682 5.42134599e-16,3.4325759 3.94745964e-16,2.21401237 L0,2.20640445 C-1.47388634e-16,0.987840922 0.975645356,2.23846489e-16 2.17916489,0 Z" id="path-1"></path>
                </g>
                <g id="Group-4-Clipped">
                    <mask id="mask-2" fill="white">
                        <use xlink:href="#path-1"></use>
                    </mask>
                    <g id="path-1"></g>
                    <g id="Group-4" mask="url(#mask-2)">
                        <g transform="translate(-12.101516, -16.956331)" id="Group">
                            <g transform="translate(24.020368, 32.671437) rotate(14.000000) translate(-24.020368, -32.671437) translate(7.520368, 3.171437)">
                                <rect id="Rectangle" fill="#00B4CD" fill-rule="nonzero" x="0" y="0" width="6.50705619" height="58.7828346"></rect>
                                <polygon id="Rectangle-Copy" fill="#0079D4" fill-rule="nonzero" points="6.50705619 -1.13686838e-13 13.0141123 -1.13686838e-13 13.0141123 58.7828346 6.50705619 58.7828346"></polygon>
                                <polygon id="Rectangle-Copy-3" fill="#A7007B" fill-rule="nonzero" points="13.0141123 -5.68434189e-14 19.5211686 -5.68434189e-14 19.5211686 58.7828346 13.0141123 58.7828346"></polygon>
                                <polygon id="Rectangle-Copy-2" fill="#FE006A" fill-rule="nonzero" points="19.5211686 -2.84217094e-14 26.0282248 -2.84217094e-14 26.0282248 58.7828346 19.5211686 58.7828346"></polygon>
                                <polygon id="Rectangle-Copy-4" fill="#FF7201" fill-rule="nonzero" points="26.0282248 -8.52651283e-14 32.535281 -8.52651283e-14 32.535281 58.7828346 26.0282248 58.7828346"></polygon>
                            </g>
                        </g>
                    </g>
                </g>
            </g>
        </g>
    </g>
</svg>